<?xml version="1.0" encoding="utf-8"?>
<!-- Generator: Adobe Illustrator 26.5.0, SVG Export Plug-In . SVG Version: 6.00 Build 0)  -->
<svg version="1.1" id="Capa_1" xmlns="http://www.w3.org/2000/svg" xmlns:xlink="http://www.w3.org/1999/xlink" x="0px" y="0px"
	 viewBox="0 0 186.2 186.2" style="enable-background:new 0 0 186.2 186.2;" xml:space="preserve">
<style type="text/css">
	.st0{fill:#112266;}
</style>
<g>
	<g>
		<path class="st0" d="M186.2,98.4c0-10.8-5.7-20.8-14.7-26.4c2-4.2,3-8.7,3-13.4c0-13.4-16.6-24.3-27.4-30
			C146,12.7,132.6,0,116.3,0c-9.2,0-17.7,3.7-23.4,10.2C87,3.7,78.8,0,69.9,0C59.2,0,49.1,5.8,43.5,14.9c-2.6,4.2-4.1,9.1-4.4,14
			c0,0,0,0.1,0,0.1c-0.7,0.3-1.4,0.7-2.4,1.3c-2.4,1.3-6.1,3.4-9.8,6.1c-10.1,7.3-15.2,14.8-15.2,22.3c0,4.7,1,9.2,3,13.4
			C5.7,77.6,0,87.6,0,98.4c0,10.4,5.2,20,13.7,25.7c-1.4,3.5-2.1,7.3-2.1,11.1c0,11.2,5.9,21.3,15.5,26.9
			c4,14.1,20.2,24.2,39.1,24.2c9.8,0,19.4-2.9,26.8-8c7.4,5.1,16.8,8,26.8,8c19,0,35.1-10.1,39.1-24.2c9.6-5.5,15.5-15.7,15.5-26.9
			c0-3.8-0.7-7.6-2.1-11.1C181.1,118.4,186.2,108.8,186.2,98.4z M66.3,179c-16,0-30-8.6-32.4-20.1c-0.2-1.1-0.9-2-1.9-2.5
			c-5.9-3-10.1-8.1-12-14.2c3,1.5,6.3,2.3,9.7,2.3h0c4.9,0,10-1.8,13.8-5c1.5-1.2,1.7-3.6,0.5-5.1c-1.2-1.5-3.6-1.7-5.1-0.5
			c-2.6,2.2-5.8,3.3-9.2,3.3c-4.1,0-7.9-1.7-10.6-4.6c0.3-2.9,1.2-5.7,2.5-8.3c0.9-1.8,0.2-4-1.5-4.9c-7.9-4.1-12.8-12.2-12.8-21
			c0-9.3,5.5-17.7,13.9-21.6c1-0.4,1.7-1.3,2-2.3s0.1-2.1-0.4-3c-2.5-3.8-3.8-8.3-3.8-12.9c0-8.6,12.4-17.2,20.6-21.7
			c1.5,7.6,5.8,14.4,12.1,19.1c1.5,1.1,3.9,0.8,5.1-0.8c1.2-1.6,0.8-3.9-0.8-5.1c-9.2-6.7-12.3-19.6-7.2-29.7
			c4-7.9,12.3-13.1,21.2-13.1c7.7,0,14.9,3.7,19.3,10l0,0.4c0,2.4,0,7.7,0,19.7H69c-1.5,0-2.8,0.9-3.4,2.2c-0.6,1.4-0.3,2.9,0.8,4
			c5.7,5.7,5.7,14.9,0,20.6c-5.5,5.5-15.1,5.5-20.6,0c-1.4-1.4-3.7-1.4-5.1,0c-1.4,1.4-1.4,3.7,0,5.1c0.6,0.6,1.2,1.1,1.8,1.6
			l-9.2,9.5c-5,5-4.9,13,0,18c4.9,4.9,13.2,4.8,18,0c1.4-1.4,1.4-3.7,0-5.1c-1.4-1.4-3.7-1.4-5.1,0c-2,2-5.7,2.1-7.7,0
			c-2.1-2.1-2.1-5.6,0-7.7c0,0,0,0,0,0c0,0,10.6-10.9,10.6-10.9c0.1-0.1,3.8,0.9,4.3,1c6.7,0.9,13.5-1.5,18.3-6.2
			c6.7-6.7,8.1-16.6,4.3-24.7h13.3c0,9.3,0,21.6,0,37.9h-8.9v-0.9c0-2-1.6-3.6-3.6-3.6s-3.6,1.6-3.6,3.6v9.1c0,2,1.6,3.6,3.6,3.6
			s3.6-1.6,3.6-3.6v-0.9h8.9c0,1.7,0,17.9,0,24.1H79.2c-0.6-1.7-1.6-3.3-3-4.6c-2.4-2.4-5.6-3.7-9-3.7c-3.4,0-6.6,1.3-9,3.7
			c-1.4,1.4-1.4,3.7,0,5.1c1.4,1.4,3.7,1.4,5.1,0c4.8-4.8,12.7,2.7,7.7,7.7c-1.4,1.4-1.4,3.7,0,5.1c1.4,1.4,3.7,1.4,5.1,0
			c1.7-1.7,2.9-3.9,3.4-6.1h9.8c0,8.4,0,16.3,0,23.4H60.9c-1,0-1.9,0.4-2.6,1.1c-5,5-5,13.1,0,18c4.8,4.8,13.2,4.8,18,0
			c1.4-1.4,1.4-3.7,0-5.1c-1.4-1.4-3.7-1.4-5.1,0c-2,2-5.7,2-7.7,0c-1.8-1.8-2.1-4.6-0.8-6.7h26.8c0,6.2,0.1,19,0.1,20.2
			C83.2,176.4,74.9,179,66.3,179z M166.2,119.4c-1.8,0.9-2.5,3.1-1.5,4.9c1.8,3.4,2.7,7.1,2.7,10.9c0,9-5,17.1-13,21.2
			c-1,0.5-1.7,1.4-1.9,2.5c-2.5,11.5-16.4,20.1-32.4,20.1c-8.7,0-17-2.5-23.2-7l0-20.2h13.1c1.3,5.6,6.4,9.8,12.4,9.8
			c7,0,12.7-5.7,12.7-12.7s-5.7-12.7-12.7-12.7c-5.5,0-10.2,3.5-12,8.4H96.7l0-23.4h33.8c1.6,5.3,6.4,9.1,12.2,9.1
			c7,0,12.7-5.7,12.7-12.7c0-7-5.7-12.7-12.7-12.7c-5.8,0-10.6,3.8-12.2,9.1H96.7l0-24.1h8c1.6,5.3,6.4,9.1,12.2,9.1
			c7,0,12.7-5.7,12.7-12.7c0-7-5.7-12.7-12.7-12.7c-5.8,0-10.6,3.8-12.2,9.1h-8l-0.1-37.9h10.6c1.6,5.2,6.5,9,12.2,9
			c7,0,12.7-5.7,12.7-12.7s-5.7-12.7-12.7-12.7c-5.8,0-10.7,3.9-12.3,9.3H96.6l0-20.1c4.3-6.3,11.6-10,19.8-10
			C129.4,7.3,140,17.9,140,31c0,2.2,1.8,3.1,2.5,3.5c15.5,7.9,24.8,16.9,24.8,24.2c0,9.1-5.9,19.7-15.9,20c-1,0-1.9,0.4-2.5,1.1
			c-0.7,0.7-1,1.6-1,2.6c0,0.9,0.4,1.8,1.1,2.5c0.7,0.7,1.6,1,2.5,1h0c0,0,0.1,0,0.1,0c6.1-0.7,12-3,16-7.8
			c6.9,4.3,11.3,11.9,11.3,20.2C179,107.3,174.1,115.3,166.2,119.4z M116.8,148.9c0-3,2.5-5.5,5.5-5.5s5.5,2.5,5.5,5.5
			c0,3-2.5,5.5-5.5,5.5S116.8,151.9,116.8,148.9z M137.2,117.5c0-3,2.5-5.5,5.5-5.5c3,0,5.5,2.5,5.5,5.5s-2.5,5.5-5.5,5.5
			C139.7,123,137.2,120.6,137.2,117.5z M111.3,86.2c0-3,2.5-5.5,5.5-5.5c3,0,5.5,2.5,5.5,5.5s-2.5,5.5-5.5,5.5
			C113.8,91.7,111.3,89.2,111.3,86.2z M113.9,40.9c0-3,2.5-5.5,5.5-5.5s5.5,2.5,5.5,5.5s-2.5,5.5-5.5,5.5S113.9,43.9,113.9,40.9z"/>
	</g>
</g>
<g>
	<g>
		<path class="st0" d="M48.2,120.6c-1-0.1-2,0.3-2.8,0.9c-0.7,0.6-1.1,1.5-1.2,2.4c-0.1,1,0.2,1.9,0.8,2.7c0.6,0.7,1.5,1.2,2.5,1.3
			c0.1,0,0.2,0,0.3,0c0.9,0,1.8-0.3,2.5-1c0.7-0.6,1.1-1.5,1.2-2.4c0,0,0,0,0,0C51.7,122.5,50.2,120.8,48.2,120.6z"/>
	</g>
</g>
<g>
	<g>
		<path class="st0" d="M140.9,74.6C140.9,74.6,140.9,74.6,140.9,74.6c-0.7-0.7-1.6-1-2.5-1c-1,0-1.9,0.4-2.6,1.1
			c-0.7,0.7-1,1.6-1,2.6c0,1,0.4,1.9,1.1,2.5c0,0,0,0,0,0c0.7,0.7,1.6,1,2.5,1c1,0,1.9-0.4,2.6-1.1C142.4,78.3,142.3,76,140.9,74.6z
			"/>
	</g>
</g>
</svg>
