<?xml version="1.0" encoding="UTF-8"?> <svg xmlns="http://www.w3.org/2000/svg" xmlns:xlink="http://www.w3.org/1999/xlink" version="1.1" id="Ebene_1" x="0px" y="0px" viewBox="0 0 102.1 80.5" style="enable-background:new 0 0 102.1 80.5;" xml:space="preserve"> <style type="text/css"> .st0{fill:#112266;} </style> <g> <g> <path class="st0" d="M61.9,80.5H40.3V51.4h-4V34.7h-6.6v45.8H4v-25H0V31.9c-0.1-5.7,4.3-10.5,9.9-11C6.3,19,4,15.3,4,11.1 C3.9,5.1,8.8,0.1,14.8,0c6.1,0.1,10.9,5.1,10.9,11.1c0.1,4.2-2.3,7.9-5.7,9.8l17.8,0v5.5c1.7-2.9,4.7-5,8.2-5.4 c-1-0.6-2-1.3-2.8-2.2c-1.9-2.1-3-4.8-2.9-7.6c0-0.2,0-0.5,0-0.7c0.1-2.9,1.3-5.5,3.5-7.5c2.1-2,4.9-3,7.8-2.9 C54.4,0.1,57,1.3,59,3.5c1.9,2.1,3,4.8,2.9,7.7c0,0.2,0,0.5,0,0.7c-0.2,4-2.4,7.3-5.7,9.1c3.5,0.4,6.5,2.5,8.2,5.4v-5.5H82 c-1-0.5-1.9-1.3-2.7-2.1c-1.9-2.1-3-4.8-2.9-7.7c0-0.2,0-0.5,0-0.7c0.1-2.9,1.3-5.6,3.5-7.5c2.1-2,4.8-3,7.8-2.9 c2.9,0.1,5.6,1.3,7.5,3.5c1.9,2.1,3,4.8,2.9,7.7c0,0.2,0,0.5,0,0.7c-0.2,4-2.4,7.3-5.7,9.1c5.5,0.6,9.8,5.4,9.7,11.1v23.5h-4v25 H72.5V34.7h-6.6v16.7h-4V80.5z M45.8,75h10.6V45.9h4V31.9c0-3-2.4-5.5-5.4-5.6l-8,0c-2.9,0.1-5.3,2.5-5.3,5.5l0,0v13.9h4V75z M21.6,75h2.6V29.2h8.1v-2.8H10.8c-2.9,0.1-5.3,2.5-5.3,5.5l0,18.1h4v25h2.6H21.6z M90,75h2.6V50h4V31.9c0-3-2.3-5.5-5.3-5.6H69.9 v2.8H78V75h2.6 M91.3,21.5v2.1V21.5C91.3,21.4,91.3,21.4,91.3,21.5z M51.1,5.5c-1.3,0-2.6,0.5-3.6,1.4c-1,1-1.6,2.3-1.7,3.7 c0,0.1,0,0.3,0,0.4l0,0.1l0,0.1c-0.1,2.9,2.2,5.4,5.1,5.5c2.9,0.1,5.4-2.2,5.5-5.1c0-0.1,0-0.3,0-0.4l0-0.1l0-0.1 c0.1-1.4-0.4-2.8-1.4-3.8c-1-1-2.3-1.6-3.7-1.7C51.2,5.5,51.1,5.5,51.1,5.5z M87.3,5.5c-1.3,0-2.6,0.5-3.6,1.4 c-1,1-1.6,2.3-1.7,3.7c0,0.1,0,0.3,0,0.4l0,0.1l0,0.1c-0.1,1.4,0.4,2.8,1.4,3.8s2.3,1.6,3.7,1.7c2.9,0.1,5.4-2.2,5.5-5.1 c0-0.1,0-0.3,0-0.4l0-0.1l0-0.1c0.1-1.4-0.4-2.8-1.4-3.8c-1-1-2.3-1.6-3.7-1.7C87.4,5.5,87.4,5.5,87.3,5.5z M14.8,5.5 c-2.9,0.1-5.3,2.5-5.3,5.5c0,3.1,2.4,5.6,5.4,5.6c2.9-0.1,5.3-2.5,5.3-5.5l0,0l0,0C20.2,8.1,17.8,5.6,14.8,5.5z"></path> </g> <path class="st0" d="M80.5,50"></path> <rect x="13.9" y="54.3" class="st0" width="5.5" height="20.8"></rect> <rect x="82.6" y="54.3" class="st0" width="5.5" height="20.8"></rect> </g> </svg> 