<?xml version="1.0" encoding="UTF-8"?> <svg xmlns="http://www.w3.org/2000/svg" xmlns:xlink="http://www.w3.org/1999/xlink" width="80" height="71" viewBox="0 0 80 71"><defs><clipPath id="clip-path"><rect id="Rechteck_5683" data-name="Rechteck 5683" width="80" height="71" transform="translate(0 0)" fill="#126"></rect></clipPath></defs><g id="Gruppe_12056" data-name="Gruppe 12056" transform="translate(0 0.5)"><g id="Gruppe_12055" data-name="Gruppe 12055" transform="translate(0 -0.5)" clip-path="url(#clip-path)"><path id="Pfad_19322" data-name="Pfad 19322" d="M56.792,6.681h11.98L53.451,22,43.586,12.13,15.454,36.748H6.681V6.681H50.11V0H6.681A6.69,6.69,0,0,0,0,6.681V50.11a6.692,6.692,0,0,0,6.681,6.681H30.066v6.681H26.726v6.681H53.451V63.473H50.11V56.792H73.5a6.69,6.69,0,0,0,6.681-6.681V30.066H73.5v6.681H25.6L43.279,21.277,53.451,31.453,73.5,11.405v11.98h6.681V0H56.792ZM43.429,63.473H36.748V56.792h6.681ZM73.5,50.11H6.681V43.429h16.7v0H50.11v0H73.5Z" transform="translate(0 0.259)" fill="#126"></path></g></g></svg> 