<?xml version="1.0" encoding="utf-8"?>
<!-- Generator: Adobe Illustrator 26.5.0, SVG Export Plug-In . SVG Version: 6.00 Build 0)  -->
<svg version="1.1" id="Layer_1" xmlns="http://www.w3.org/2000/svg" xmlns:xlink="http://www.w3.org/1999/xlink" x="0px" y="0px"
	 viewBox="0 0 131.3 131.3" style="enable-background:new 0 0 131.3 131.3;" xml:space="preserve">
<style type="text/css">
	.st0{fill:#112266;}
</style>
<path class="st0" d="M4.4,54c2.4,0,4.4-2,4.4-4.4V14.9l41.7,41.7c0.9,0.9,2,1.3,3.1,1.3s2.2-0.4,3.1-1.3c1.7-1.7,1.7-4.5,0-6.2
	L14.9,8.8h34.6c2.4,0,4.4-2,4.4-4.4S52,0,49.6,0H4.4C2,0,0,2,0,4.4v45.2C0,52,2,54,4.4,54L4.4,54z"/>
<path class="st0" d="M131.3,81.7c0-2.4-2-4.4-4.4-4.4s-4.4,2-4.4,4.4v34.6L80.8,74.7c-1.7-1.7-4.5-1.7-6.2,0c-1.7,1.7-1.7,4.5,0,6.2
	l41.7,41.7H81.7c-2.4,0-4.4,2-4.4,4.4s2,4.4,4.4,4.4h45.2c2.4,0,4.4-2,4.4-4.4V81.7z"/>
<path class="st0" d="M131.3,4.4c0-2.4-2-4.4-4.4-4.4H81.7c-2.4,0-4.4,2-4.4,4.4s2,4.4,4.4,4.4h34.6L74.7,50.4
	c-1.7,1.7-1.7,4.5,0,6.2c0.9,0.9,2,1.3,3.1,1.3c1.1,0,2.2-0.4,3.1-1.3l41.7-41.7v34.6c0,2.4,2,4.4,4.4,4.4c2.4,0,4.4-2,4.4-4.4
	L131.3,4.4z"/>
<path class="st0" d="M4.4,131.3h45.2c2.4,0,4.4-2,4.4-4.4s-2-4.4-4.4-4.4H14.9l41.7-41.7c1.7-1.7,1.7-4.5,0-6.2s-4.5-1.7-6.2,0
	L8.8,116.3V81.7c0-2.4-2-4.4-4.4-4.4S0,79.3,0,81.7v45.2C0,129.3,2,131.3,4.4,131.3z"/>
</svg>
