<svg id="Layer_1" data-name="Layer 1" xmlns="http://www.w3.org/2000/svg" viewBox="0 0 1199.83 239.96"><defs><style>.cls-1{fill:#126;}</style></defs><path class="cls-1" d="M1170,61.56a10.64,10.64,0,0,0-2.8-20.91h-17.78V76.21h7.11V62h5.21l9.49,14.22h8.53Zm-2.8-6.68h-10.67V47.76h10.67a3.56,3.56,0,0,1,0,7.12Z"/><path class="cls-1" d="M1163.64,22.49a35.64,35.64,0,1,0,35.64,35.64A35.64,35.64,0,0,0,1163.64,22.49Zm0,63.9a28.26,28.26,0,1,1,28.26-28.26A28.3,28.3,0,0,1,1163.64,86.39Z"/><path class="cls-1" d="M951.08,42.59V197.37h-38.7V42.59Z"/><polygon class="cls-1" points="551.98 42.59 513.84 175.26 475.7 42.59 433.69 42.59 478.1 197.37 549.59 197.37 593.99 42.59 551.98 42.59"/><path class="cls-1" d="M698.46,197.37h42L696.07,42.59H624.49L580.08,197.37h42l13.64-47.54h48.91ZM645.4,116.66l14.92-51.95,14.93,52Z"/><polygon class="cls-1" points="1108.06 42.59 964.34 42.59 964.34 81.29 1016.85 81.29 1016.85 197.37 1055.55 197.37 1055.55 81.29 1108.06 81.29 1108.06 42.59"/><polygon class="cls-1" points="422.63 42.59 278.92 42.59 278.92 81.29 331.43 81.29 331.43 197.37 370.12 197.37 370.12 81.29 422.63 81.29 422.63 42.59"/><path class="cls-1" d="M850.57,146.51a52.49,52.49,0,0,0-7.19-103.82l-91.21-.1V197.37h38.7V141.26L847,197.37h54.45Zm-17.79-29.29h-42V78.52h42a19.35,19.35,0,0,1,19.35,19.35h0A19.35,19.35,0,0,1,832.78,117.22Z"/><circle class="cls-1" cx="9.72" cy="16.61" r="7.19"/><circle class="cls-1" cx="9.72" cy="46.1" r="7.19"/><circle class="cls-1" cx="9.72" cy="75.67" r="7.19"/><circle class="cls-1" cx="9.71" cy="105.18" r="7.19"/><circle class="cls-1" cx="9.73" cy="134.73" r="7.19"/><circle class="cls-1" cx="9.72" cy="164.2" r="7.19"/><circle class="cls-1" cx="9.72" cy="193.77" r="7.19"/><circle class="cls-1" cx="9.72" cy="223.35" r="7.19"/><circle class="cls-1" cx="39.3" cy="16.61" r="7.19"/><circle class="cls-1" cx="39.3" cy="46.1" r="11.61"/><circle class="cls-1" cx="39.3" cy="75.67" r="10.5"/><circle class="cls-1" cx="39.25" cy="105.14" r="7.19"/><circle class="cls-1" cx="39.3" cy="134.71" r="7.19"/><circle class="cls-1" cx="39.3" cy="164.2" r="7.19"/><circle class="cls-1" cx="39.3" cy="193.77" r="7.19"/><circle class="cls-1" cx="39.3" cy="223.35" r="7.19"/><circle class="cls-1" cx="68.78" cy="16.61" r="7.19"/><circle class="cls-1" cx="68.78" cy="46.1" r="13.27"/><circle class="cls-1" cx="68.78" cy="75.67" r="12.71"/><circle class="cls-1" cx="68.77" cy="105.19" r="7.19"/><circle class="cls-1" cx="68.79" cy="134.73" r="7.19"/><circle class="cls-1" cx="68.78" cy="164.2" r="7.19"/><circle class="cls-1" cx="68.78" cy="193.77" r="7.19"/><circle class="cls-1" cx="68.78" cy="223.35" r="7.19"/><circle class="cls-1" cx="98.35" cy="16.61" r="7.19"/><circle class="cls-1" cx="98.35" cy="46.1" r="15.48"/><circle class="cls-1" cx="98.35" cy="75.67" r="16.58"/><circle class="cls-1" cx="98.31" cy="105.15" r="16.03"/><circle class="cls-1" cx="98.36" cy="134.71" r="14.92"/><circle class="cls-1" cx="98.35" cy="164.2" r="14.37"/><circle class="cls-1" cx="98.35" cy="193.77" r="13.27"/><circle class="cls-1" cx="98.35" cy="223.35" r="7.19"/><circle class="cls-1" cx="127.83" cy="16.61" r="7.19"/><circle class="cls-1" cx="127.83" cy="75.67" r="16.03"/><circle class="cls-1" cx="127.84" cy="105.2" r="14.92"/><circle class="cls-1" cx="127.84" cy="134.73" r="14.37"/><circle class="cls-1" cx="127.83" cy="164.2" r="13.27"/><circle class="cls-1" cx="127.83" cy="193.77" r="12.16"/><circle class="cls-1" cx="127.83" cy="223.35" r="7.19"/><circle class="cls-1" cx="186.97" cy="16.61" r="7.19"/><circle class="cls-1" cx="186.97" cy="46.1" r="11.61"/><circle class="cls-1" cx="186.97" cy="75.67" r="11.06"/><circle class="cls-1" cx="186.92" cy="105.13" r="7.19"/><circle class="cls-1" cx="186.98" cy="134.7" r="7.19"/><circle class="cls-1" cx="186.97" cy="164.2" r="7.19"/><circle class="cls-1" cx="186.97" cy="193.77" r="7.19"/><circle class="cls-1" cx="186.97" cy="223.35" r="7.19"/><circle class="cls-1" cx="157.4" cy="16.61" r="7.19"/><circle class="cls-1" cx="157.4" cy="46.1" r="12.71"/><circle class="cls-1" cx="127.83" cy="46.1" r="14.37"/><circle class="cls-1" cx="157.4" cy="75.67" r="12.16"/><circle class="cls-1" cx="157.38" cy="105.17" r="7.19"/><circle class="cls-1" cx="157.41" cy="134.72" r="7.19"/><circle class="cls-1" cx="157.4" cy="164.2" r="7.19"/><circle class="cls-1" cx="157.4" cy="193.77" r="7.19"/><circle class="cls-1" cx="157.4" cy="223.35" r="7.19"/><circle class="cls-1" cx="216.46" cy="16.61" r="7.19"/><circle class="cls-1" cx="215.9" cy="46.1" r="9.95"/><circle class="cls-1" cx="216.46" cy="75.67" r="9.4"/><circle class="cls-1" cx="216.44" cy="105.18" r="7.19" transform="translate(77.95 301.98) rotate(-80.78)"/><circle class="cls-1" cx="216.47" cy="134.72" r="7.19" transform="translate(-35.08 93.1) rotate(-22.5)"/><circle class="cls-1" cx="216.46" cy="164.2" r="7.19"/><circle class="cls-1" cx="216.46" cy="193.77" r="7.19"/><circle class="cls-1" cx="216.46" cy="223.35" r="7.19"/></svg>