<?xml version="1.0" encoding="UTF-8"?> <svg xmlns="http://www.w3.org/2000/svg" xmlns:xlink="http://www.w3.org/1999/xlink" version="1.1" id="Layer_1" x="0px" y="0px" viewBox="0 0 242.4 240" style="enable-background:new 0 0 242.4 240;" xml:space="preserve"> <style type="text/css"> .st0{fill:#FFFFFF;} </style> <g> <circle class="st0" cx="7.8" cy="7.8" r="7.8"></circle> <circle class="st0" cx="7.8" cy="39.9" r="7.8"></circle> <circle class="st0" cx="7.8" cy="71.9" r="7.8"></circle> <ellipse transform="matrix(0.1602 -0.9871 0.9871 0.1602 -96.0783 95.0163)" class="st0" cx="7.8" cy="104" rx="7.8" ry="7.8"></ellipse> <ellipse transform="matrix(0.9239 -0.3827 0.3827 0.9239 -51.4622 13.3395)" class="st0" cx="7.8" cy="136" rx="7.8" ry="7.8"></ellipse> <circle class="st0" cx="7.8" cy="168.1" r="7.8"></circle> <circle class="st0" cx="7.8" cy="200.1" r="7.8"></circle> <circle class="st0" cx="7.8" cy="232.2" r="7.8"></circle> <circle class="st0" cx="39.9" cy="7.8" r="7.8"></circle> <circle class="st0" cx="39.9" cy="39.9" r="12.6"></circle> <circle class="st0" cx="39.9" cy="71.9" r="11.4"></circle> <ellipse transform="matrix(0.1602 -0.9871 0.9871 0.1602 -69.1562 126.6595)" class="st0" cx="39.9" cy="104" rx="7.8" ry="7.8"></ellipse> <ellipse transform="matrix(0.9239 -0.3827 0.3827 0.9239 -49.022 25.6072)" class="st0" cx="39.9" cy="136" rx="7.8" ry="7.8"></ellipse> <circle class="st0" cx="39.9" cy="168.1" r="7.8"></circle> <circle class="st0" cx="39.9" cy="200.1" r="7.8"></circle> <circle class="st0" cx="39.9" cy="232.2" r="7.8"></circle> <circle class="st0" cx="71.9" cy="7.8" r="7.8"></circle> <circle class="st0" cx="71.9" cy="39.9" r="14.4"></circle> <circle class="st0" cx="71.9" cy="71.9" r="13.8"></circle> <ellipse transform="matrix(0.1602 -0.9871 0.9871 0.1602 -42.234 158.3027)" class="st0" cx="71.9" cy="104" rx="7.8" ry="7.8"></ellipse> <ellipse transform="matrix(0.9239 -0.3827 0.3827 0.9239 -46.5818 37.875)" class="st0" cx="71.9" cy="136" rx="7.8" ry="7.8"></ellipse> <circle class="st0" cx="71.9" cy="168.1" r="7.8"></circle> <circle class="st0" cx="71.9" cy="200.1" r="7.8"></circle> <circle class="st0" cx="71.9" cy="232.2" r="7.8"></circle> <circle class="st0" cx="104" cy="7.8" r="7.8"></circle> <circle class="st0" cx="104" cy="39.9" r="16.8"></circle> <circle class="st0" cx="104" cy="71.9" r="18"></circle> <ellipse transform="matrix(0.1602 -0.9871 0.9871 0.1602 -15.3118 189.9459)" class="st0" cx="104" cy="104" rx="17.4" ry="17.4"></ellipse> <ellipse transform="matrix(0.9239 -0.3827 0.3827 0.9239 -44.1415 50.1427)" class="st0" cx="104" cy="136" rx="16.2" ry="16.2"></ellipse> <circle class="st0" cx="104" cy="168.1" r="15.6"></circle> <circle class="st0" cx="104" cy="200.1" r="14.4"></circle> <circle class="st0" cx="104" cy="232.2" r="7.8"></circle> <circle class="st0" cx="136" cy="7.8" r="7.8"></circle> <circle class="st0" cx="136" cy="71.9" r="17.4"></circle> <ellipse transform="matrix(0.1602 -0.9871 0.9871 0.1602 11.6104 221.5892)" class="st0" cx="136" cy="104" rx="16.2" ry="16.2"></ellipse> <ellipse transform="matrix(0.9239 -0.3827 0.3827 0.9239 -41.7013 62.4105)" class="st0" cx="136" cy="136" rx="15.6" ry="15.6"></ellipse> <circle class="st0" cx="136" cy="168.1" r="14.4"></circle> <circle class="st0" cx="136" cy="200.1" r="13.2"></circle> <circle class="st0" cx="136" cy="232.2" r="7.8"></circle> <circle class="st0" cx="200.1" cy="7.8" r="7.8"></circle> <circle class="st0" cx="200.1" cy="39.9" r="12.6"></circle> <circle class="st0" cx="200.1" cy="71.9" r="12"></circle> <ellipse transform="matrix(0.1602 -0.9871 0.9871 0.1602 65.4547 284.8756)" class="st0" cx="200.1" cy="104" rx="7.8" ry="7.8"></ellipse> <ellipse transform="matrix(0.9239 -0.3827 0.3827 0.9239 -36.8209 86.946)" class="st0" cx="200.1" cy="136" rx="7.8" ry="7.8"></ellipse> <circle class="st0" cx="200.1" cy="168.1" r="7.8"></circle> <circle class="st0" cx="200.1" cy="200.1" r="7.8"></circle> <circle class="st0" cx="200.1" cy="232.2" r="7.8"></circle> <circle class="st0" cx="168.1" cy="7.8" r="7.8"></circle> <circle class="st0" cx="168.1" cy="39.9" r="13.8"></circle> <circle class="st0" cx="136" cy="39.9" r="15.6"></circle> <circle class="st0" cx="168.1" cy="71.9" r="13.2"></circle> <ellipse transform="matrix(0.1602 -0.9871 0.9871 0.1602 38.5325 253.2323)" class="st0" cx="168.1" cy="104" rx="7.8" ry="7.8"></ellipse> <ellipse transform="matrix(0.9239 -0.3827 0.3827 0.9239 -39.2611 74.6782)" class="st0" cx="168.1" cy="136" rx="7.8" ry="7.8"></ellipse> <circle class="st0" cx="168.1" cy="168.1" r="7.8"></circle> <circle class="st0" cx="168.1" cy="200.1" r="7.8"></circle> <circle class="st0" cx="168.1" cy="232.2" r="7.8"></circle> <circle class="st0" cx="232.2" cy="7.8" r="7.8"></circle> <circle class="st0" cx="231.6" cy="39.9" r="10.8"></circle> <circle class="st0" cx="232.2" cy="71.9" r="10.2"></circle> <ellipse transform="matrix(0.1602 -0.9871 0.9871 0.1602 92.3768 316.5188)" class="st0" cx="232.2" cy="104" rx="7.8" ry="7.8"></ellipse> <ellipse transform="matrix(0.9239 -0.3827 0.3827 0.9239 -34.3807 99.2137)" class="st0" cx="232.2" cy="136" rx="7.8" ry="7.8"></ellipse> <circle class="st0" cx="232.2" cy="168.1" r="7.8"></circle> <circle class="st0" cx="232.2" cy="200.1" r="7.8"></circle> <circle class="st0" cx="232.2" cy="232.2" r="7.8"></circle> </g> </svg> 