<?xml version="1.0" encoding="UTF-8"?> <svg xmlns="http://www.w3.org/2000/svg" xmlns:xlink="http://www.w3.org/1999/xlink" width="66.5" height="70" viewBox="0 0 66.5 70"><defs><clipPath id="clip-path"><rect id="Rechteck_5338" data-name="Rechteck 5338" width="66.5" height="70" fill="#203363"></rect></clipPath></defs><g id="Gruppe_11613" data-name="Gruppe 11613" transform="translate(0.199 0.211)"><g id="Gruppe_11612" data-name="Gruppe 11612" transform="translate(-0.199 -0.211)" clip-path="url(#clip-path)"><path id="Pfad_4510" data-name="Pfad 4510" d="M58.954,3.685H51.585V0H44.215V3.685H22.108V0H14.738V3.685H7.369A7.377,7.377,0,0,0,0,11.054V62.638a7.379,7.379,0,0,0,7.369,7.369H58.954a7.379,7.379,0,0,0,7.369-7.369V11.054a7.377,7.377,0,0,0-7.369-7.369M14.738,11.054v3.685h7.369V11.054H44.215v3.685h7.369V11.054h7.369v7.369H7.369V11.054ZM7.369,62.638V25.792H58.954l0,36.846Z" transform="translate(0.174 0.185)" fill="#203363"></path><rect id="Rechteck_5337" data-name="Rechteck 5337" width="14.875" height="14.875" transform="translate(14.875 33.25)" fill="#203363"></rect></g></g></svg> 