<?xml version="1.0" encoding="UTF-8"?> <svg xmlns="http://www.w3.org/2000/svg" xmlns:xlink="http://www.w3.org/1999/xlink" width="65" height="65" viewBox="0 0 65 65"><defs><clipPath id="clip-path"><rect id="Rechteck_5676" data-name="Rechteck 5676" width="65" height="65" fill="#126"></rect></clipPath></defs><g id="Gruppe_15195" data-name="Gruppe 15195" transform="translate(0 -0.029)"><path id="Pfad_19315" data-name="Pfad 19315" d="M23.552,3.293l-8.924,8.924-3.5-3.5L7.293,12.542l7.336,7.338L27.384,7.122Z" transform="translate(12.47 5.623)" fill="#126"></path><g id="Gruppe_12044" data-name="Gruppe 12044" transform="translate(0 0.029)"><g id="Gruppe_12043" data-name="Gruppe 12043" clip-path="url(#clip-path)"><path id="Pfad_19316" data-name="Pfad 19316" d="M59.617,27.1H54.2V5.42A5.425,5.425,0,0,0,48.778,0H5.42A5.427,5.427,0,0,0,0,5.42V40.648a5.429,5.429,0,0,0,5.42,5.42H24.389v5.42h-5.42v5.42H35.229v-5.42h-5.42v-5.42h5.431v-5.42H5.42v-5.42H18.969v0h10.84v0h5.42v-5.42H5.42V5.42H48.778V27.1h-5.42a5.427,5.427,0,0,0-5.42,5.42v27.1a5.429,5.429,0,0,0,5.42,5.42H59.617a5.427,5.427,0,0,0,5.42-5.42v-27.1a5.425,5.425,0,0,0-5.42-5.42M43.358,59.617V46.068h5.42a5.427,5.427,0,0,0,5.42-5.42V35.226h-5.42v5.422h-5.42v-8.13H59.617l0,27.1Z" transform="translate(0 -0.037)" fill="#126"></path></g></g></g></svg> 