<svg xmlns="http://www.w3.org/2000/svg" width="128" height="128" fill="none"><path fill="#ACCCF8" d="M33 36.394A3.395 3.395 0 0 1 36.394 33h71.278a3.395 3.395 0 0 1 3.394 3.394v40.73a3.396 3.396 0 0 1-3.394 3.394H36.394A3.395 3.395 0 0 1 33 77.124v-40.73Z"/><path fill="#ACCCF8" d="M36.394 33A3.395 3.395 0 0 0 33 36.394v40.73a3.394 3.394 0 0 0 3.394 3.394H47.99L95.507 33H36.394Z"/><path fill="#fff" d="M39.79 41.486a1.697 1.697 0 0 1 1.696-1.697h61.095a1.697 1.697 0 0 1 1.697 1.697v30.548a1.698 1.698 0 0 1-1.697 1.697H41.486a1.697 1.697 0 0 1-1.697-1.697V41.486Z"/><path fill="#ACCCF8" d="M72.034 66.943a10.183 10.183 0 1 0 0-20.366 10.183 10.183 0 0 0 0 20.366Z"/><path fill="#fff" d="M41.486 39.79a1.697 1.697 0 0 0-1.697 1.696v30.548a1.698 1.698 0 0 0 1.697 1.697h13.292l33.941-33.942H41.486Z"/><path stroke="#1772EB" stroke-linecap="round" stroke-linejoin="round" stroke-width="3.54" d="M33 36.394A3.395 3.395 0 0 1 36.394 33h71.278a3.395 3.395 0 0 1 3.394 3.394v40.73a3.396 3.396 0 0 1-3.394 3.394H36.394A3.395 3.395 0 0 1 33 77.124v-40.73Z"/><path stroke="#1772EB" stroke-linecap="round" stroke-linejoin="round" stroke-width="3.54" d="M39.79 41.486a1.697 1.697 0 0 1 1.696-1.697h61.095a1.697 1.697 0 0 1 1.697 1.697v30.548a1.698 1.698 0 0 1-1.697 1.697H41.486a1.697 1.697 0 0 1-1.697-1.697V41.486Z"/><path fill="#ACCCF8" d="M72.034 46.578a10.183 10.183 0 0 0-7.338 17.236l14.391-14.392a10.136 10.136 0 0 0-7.053-2.844Z"/><path stroke="#1772EB" stroke-linecap="round" stroke-linejoin="round" stroke-width="3.54" d="M48.274 47.426a.848.848 0 1 1 0 1.696.848.848 0 0 1 0-1.696Z"/><path fill="#ACCCF8" d="M17 50.394A3.395 3.395 0 0 1 20.394 47h71.278a3.394 3.394 0 0 1 3.394 3.394v40.73a3.394 3.394 0 0 1-3.394 3.394H20.394A3.395 3.395 0 0 1 17 91.124v-40.73Z"/><path fill="#ACCCF8" d="M20.394 47A3.395 3.395 0 0 0 17 50.394v40.73a3.394 3.394 0 0 0 3.394 3.394H31.99L79.507 47H20.394Z"/><path fill="#fff" d="M23.79 55.486a1.697 1.697 0 0 1 1.696-1.697h61.095a1.698 1.698 0 0 1 1.697 1.697v30.548a1.698 1.698 0 0 1-1.697 1.697H25.486a1.697 1.697 0 0 1-1.697-1.697V55.486Z"/><path fill="#fff" d="M25.486 53.79a1.697 1.697 0 0 0-1.697 1.696v30.548a1.698 1.698 0 0 0 1.697 1.697h13.292l33.941-33.942H25.486Z"/><path stroke="#1772EB" stroke-linecap="round" stroke-linejoin="round" stroke-width="3.54" d="M17 50.394A3.395 3.395 0 0 1 20.394 47h71.278a3.394 3.394 0 0 1 3.394 3.394v40.73a3.394 3.394 0 0 1-3.394 3.394H20.394A3.395 3.395 0 0 1 17 91.124v-40.73Z"/><path stroke="#1772EB" stroke-linecap="round" stroke-linejoin="round" stroke-width="3.54" d="M23.79 55.486a1.697 1.697 0 0 1 1.696-1.697h61.095a1.698 1.698 0 0 1 1.697 1.697v30.548a1.698 1.698 0 0 1-1.697 1.697H25.486a1.697 1.697 0 0 1-1.697-1.697V55.486Z"/><path stroke="#1772EB" stroke-linecap="round" stroke-linejoin="round" stroke-width="3.54" d="M60.076 62.031h-5.462a3.604 3.604 0 0 0-1.339 6.954l5.543 2.218a3.628 3.628 0 0 1-1.338 6.953h-5.467M56.044 62.031V58M56.044 82.188v-4.032"/><path fill="#D9D9D9" stroke="#1772EB" stroke-linecap="round" stroke-linejoin="round" stroke-width="3.54" d="M32.274 61.426a.848.848 0 1 1 0 1.696.848.848 0 0 1 0-1.696Z"/><path stroke="#1772EB" stroke-linecap="round" stroke-linejoin="round" stroke-width="3.54" d="M79.792 78.397a.849.849 0 1 1 0 1.697.849.849 0 0 1 0-1.697Z"/></svg>