<?xml version="1.0" encoding="UTF-8"?> <svg xmlns="http://www.w3.org/2000/svg" xmlns:xlink="http://www.w3.org/1999/xlink" id="Gruppe_11616" data-name="Gruppe 11616" width="70" height="70" viewBox="0 0 70 70"><defs><clipPath id="clip-path"><rect id="Rechteck_5341" data-name="Rechteck 5341" width="70" height="70" fill="#203363"></rect></clipPath></defs><rect id="Rechteck_5339" data-name="Rechteck 5339" width="28.063" height="7.016" transform="translate(28.063 27.487)" fill="#203363"></rect><rect id="Rechteck_5340" data-name="Rechteck 5340" width="28.063" height="7.016" transform="translate(28.063 41.519)" fill="#203363"></rect><g id="Gruppe_11615" data-name="Gruppe 11615"><g id="Gruppe_11614" data-name="Gruppe 11614" clip-path="url(#clip-path)"><path id="Pfad_4511" data-name="Pfad 4511" d="M53.109,3.836H11.016A7.023,7.023,0,0,0,4,10.852V45.93a7.023,7.023,0,0,0,7.016,7.016H28.555v2a5.6,5.6,0,0,0,5.6,5.588,5.518,5.518,0,0,0,3.932-1.642l5.953-5.949h9.071a7.023,7.023,0,0,0,7.016-7.016V10.852a7.023,7.023,0,0,0-7.016-7.016m0,42.094H41.134L35.57,51.493V45.93H11.016V10.852H53.109Z" transform="translate(10.031 9.62)" fill="#203363"></path><path id="Pfad_4512" data-name="Pfad 4512" d="M56.125,0H7.016A7.023,7.023,0,0,0,0,7.016V49.109H7.016V7.016H56.125Z" fill="#203363"></path></g></g></svg> 