<?xml version="1.0" encoding="UTF-8"?> <svg xmlns="http://www.w3.org/2000/svg" xmlns:xlink="http://www.w3.org/1999/xlink" width="56" height="70" viewBox="0 0 56 70"><defs><clipPath id="clip-path"><rect id="Rechteck_5336" data-name="Rechteck 5336" width="56" height="70" transform="translate(0 0.008)" fill="#203363"></rect></clipPath></defs><g id="Gruppe_11611" data-name="Gruppe 11611" transform="translate(-0.396 -0.008)"><g id="Gruppe_11610" data-name="Gruppe 11610" transform="translate(0.396)" clip-path="url(#clip-path)"><path id="Pfad_4508" data-name="Pfad 4508" d="M20.546,35.091A17.546,17.546,0,1,0,3,17.546,17.548,17.548,0,0,0,20.546,35.091m0-28.073A10.527,10.527,0,1,1,10.018,17.546,10.54,10.54,0,0,1,20.546,7.018" transform="translate(7.197)" fill="#203363"></path><path id="Pfad_4509" data-name="Pfad 4509" d="M53.283,17.239A53.456,53.456,0,0,0,28.073,11a53.456,53.456,0,0,0-25.21,6.239C1.891,17.759.926,18.285,0,18.86V42.582H56.146V18.86c-.926-.575-1.891-1.1-2.863-1.621M49.128,35.564H7.018V22.991a47.063,47.063,0,0,1,42.11,0Z" transform="translate(-0.33 27.601)" fill="#203363"></path></g></g></svg> 