<?xml version="1.0" encoding="UTF-8"?> <svg xmlns="http://www.w3.org/2000/svg" xmlns:xlink="http://www.w3.org/1999/xlink" width="70" height="70" viewBox="0 0 70 70"><defs><clipPath id="clip-path"><rect id="Rechteck_6276" data-name="Rechteck 6276" width="70" height="70" transform="translate(0 0.423)" fill="#126"></rect></clipPath></defs><g id="Gruppe_13091" data-name="Gruppe 13091" transform="translate(-0.103 -0.576)"><path id="Pfad_41764" data-name="Pfad 41764" d="M16.217,30.731,9.46,23.974,5.293,28.141,16.217,39.065l28.6-28.6L40.655,6.293Z" transform="translate(10.294 12.225)" fill="#126"></path><g id="Gruppe_12950" data-name="Gruppe 12950" transform="translate(0.103 0.153)"><g id="Gruppe_12949" data-name="Gruppe 12949" transform="translate(0 0)" clip-path="url(#clip-path)"><path id="Pfad_41765" data-name="Pfad 41765" d="M35.362,0A35.362,35.362,0,1,0,70.724,35.362,35.4,35.4,0,0,0,35.362,0m0,64.83A29.468,29.468,0,1,1,64.83,35.362,29.5,29.5,0,0,1,35.362,64.83" transform="translate(-0.113 -0.18)" fill="#126"></path></g></g></g></svg> 