<?xml version="1.0" encoding="UTF-8"?> <svg xmlns="http://www.w3.org/2000/svg" xmlns:xlink="http://www.w3.org/1999/xlink" version="1.1" id="Ebene_1" x="0px" y="0px" viewBox="0 0 476.9 265" style="enable-background:new 0 0 476.9 265;" xml:space="preserve"> <style type="text/css"> .st0{enable-background:new ;} .st1{fill:#112266;} </style> <g id="Gruppe_15325" transform="translate(-199.105 -1725)"> <g class="st0"> <path class="st1" d="M380.7,1767v-2.2c2,1.3,4,1.9,6.1,1.9c2.2,0,3.8-0.5,5-1.4s1.7-2.2,1.7-3.8c0-1.4-0.4-2.6-1.1-3.4 s-2.4-2-5-3.5c-2.8-1.7-4.6-3-5.4-4.2c-0.8-1.1-1.1-2.4-1.1-3.9c0-2,0.8-3.7,2.3-5c1.5-1.4,3.6-2.1,6.2-2.1c1.7,0,3.3,0.3,5,0.8v2 c-1.6-0.7-3.4-1.1-5.3-1.1c-1.9,0-3.4,0.5-4.5,1.4s-1.7,2.2-1.7,3.7c0,1.4,0.4,2.6,1.1,3.4s2.4,2,4.9,3.5c2.6,1.5,4.4,2.8,5.2,4 c0.9,1.2,1.3,2.5,1.3,4c0,2.1-0.7,3.9-2.2,5.3c-1.5,1.4-3.6,2-6.3,2c-1,0-2.1-0.1-3.3-0.4C382.3,1767.7,381.4,1767.4,380.7,1767z"></path> <path class="st1" d="M414,1767.1c-1.5,0.9-3.3,1.4-5.3,1.4c-2.7,0-4.9-0.9-6.6-2.8c-1.7-1.9-2.5-4.3-2.5-7.3 c0-3.2,0.9-5.8,2.8-7.8s4.3-3,7.2-3c1.5,0,3,0.3,4.4,0.9v2c-1.4-0.9-3-1.3-4.7-1.3c-2.3,0-4.2,0.8-5.7,2.5 c-1.5,1.7-2.2,3.9-2.2,6.6c0,2.6,0.7,4.7,2,6.2c1.3,1.6,3.1,2.4,5.3,2.4c2,0,3.8-0.5,5.2-1.6V1767.1z"></path> <path class="st1" d="M428.3,1749.9c-0.6-0.4-1.3-0.6-2.1-0.6c-1.6,0-2.9,0.8-4,2.4c-1.1,1.6-1.6,3.9-1.6,6.9v9.4h-1.8v-20h1.8v4.4 h0.1c0.5-1.5,1.2-2.7,2.2-3.6c1-0.8,2.1-1.3,3.4-1.3c0.7,0,1.4,0.1,2,0.4V1749.9z"></path> <path class="st1" d="M444,1768v-4h-0.1c-0.6,1.4-1.6,2.5-2.8,3.3c-1.2,0.8-2.6,1.2-4.1,1.2c-1.9,0-3.4-0.5-4.5-1.6 c-1.1-1.1-1.7-2.4-1.7-4c0-3.5,2.3-5.6,6.9-6.3l6.2-0.9c0-4.3-1.6-6.4-4.8-6.4c-2.2,0-4.3,0.9-6.4,2.7v-2.2c0.7-0.6,1.7-1.1,3-1.5 s2.5-0.6,3.6-0.6c2.1,0,3.6,0.6,4.8,1.9c1.1,1.3,1.7,3.1,1.7,5.6v13H444z M438.5,1758c-2.1,0.3-3.6,0.8-4.4,1.5 c-0.8,0.7-1.3,1.8-1.3,3.3c0,1.2,0.4,2.2,1.2,2.9c0.8,0.8,1.9,1.2,3.3,1.2c1.9,0,3.5-0.7,4.8-2.1c1.3-1.4,1.9-3.3,1.9-5.5v-2 L438.5,1758z"></path> <path class="st1" d="M453.7,1764.4L453.7,1764.4l-0.1,12.8h-1.8V1748h1.8v4.1h0.1c0.7-1.5,1.7-2.6,3.1-3.4 c1.3-0.8,2.8-1.2,4.4-1.2c2.5,0,4.5,0.9,5.9,2.6s2.1,4.1,2.1,7.1c0,3.3-0.8,6.1-2.5,8.1c-1.6,2.1-3.8,3.1-6.5,3.1 C457.3,1768.5,455.1,1767.1,453.7,1764.4z M453.6,1757v2.5c0,2,0.6,3.7,1.9,5.2c1.3,1.4,2.9,2.2,5,2.2c2,0,3.7-0.9,5-2.6 c1.3-1.8,1.9-4.1,1.9-6.9c0-2.5-0.6-4.5-1.8-6s-2.7-2.2-4.7-2.2c-2.3,0-4.1,0.8-5.4,2.3C454.2,1753.1,453.6,1754.9,453.6,1757z"></path> </g> <g class="st0"> <path class="st1" d="M381.6,1821v-28h13.1v1.8h-11.2v11.2h10.4v1.8h-10.4v11.5h11.8v1.8H381.6z"></path> <path class="st1" d="M414.8,1821v-11.6c0-4.8-1.7-7.2-5.2-7.2c-1.9,0-3.5,0.7-4.7,2.1c-1.2,1.4-1.9,3.2-1.9,5.2v11.5h-1.8v-20h1.8 v3.6h0.1c1.5-2.7,3.7-4.1,6.8-4.1c2.2,0,3.8,0.7,5,2.2c1.1,1.4,1.7,3.5,1.7,6.2v12.2H414.8z"></path> <path class="st1" d="M423,1811.1c0,2.7,0.6,4.9,1.9,6.4s3,2.3,5.2,2.3c2.2,0,4.4-0.8,6.6-2.5v1.9c-2.1,1.5-4.4,2.2-6.9,2.2 c-2.6,0-4.7-0.9-6.2-2.8c-1.6-1.8-2.4-4.5-2.4-7.8c0-2.9,0.8-5.4,2.5-7.4s3.8-3,6.5-3c2.5,0,4.4,0.9,5.7,2.6s2,4.1,2,7.1v0.8H423z M436,1809.4c-0.1-2.3-0.6-4.1-1.7-5.4c-1-1.3-2.4-1.9-4.3-1.9c-1.9,0-3.4,0.6-4.7,1.9s-2,3.1-2.3,5.4H436z"></path> <path class="st1" d="M452.2,1802.9c-0.6-0.4-1.3-0.6-2.1-0.6c-1.6,0-2.9,0.8-4,2.4c-1.1,1.6-1.6,3.9-1.6,6.9v9.4h-1.8v-20h1.8v4.4 h0.1c0.5-1.5,1.2-2.7,2.2-3.6c1-0.8,2.1-1.3,3.4-1.3c0.7,0,1.4,0.1,2,0.4V1802.9z"></path> <path class="st1" d="M471.2,1819.5c0,3.8-0.8,6.5-2.5,8.3s-4.2,2.6-7.7,2.6c-1.9,0-3.9-0.5-6-1.5v-1.9c2.1,1.2,4.1,1.8,6,1.8 c5.5,0,8.3-2.9,8.3-8.8v-2.6h-0.1c-1.6,2.7-4,4.1-7.2,4.1c-2.5,0-4.5-0.9-6-2.7c-1.6-1.8-2.3-4.3-2.3-7.5s0.8-5.8,2.5-7.8 s3.9-3,6.6-3c2.9,0,5.1,1.2,6.4,3.7h0.1v-3.2h1.8V1819.5z M469.4,1808.7c0-1.8-0.6-3.3-1.8-4.6s-2.7-1.9-4.7-1.9 c-2.2,0-4,0.8-5.3,2.5c-1.3,1.7-2,3.8-2,6.6c0,2.7,0.6,4.9,1.8,6.4s2.9,2.3,4.9,2.3c2.1,0,3.9-0.7,5.1-2.1 c1.3-1.4,1.9-3.1,1.9-5.1V1808.7z"></path> <path class="st1" d="M482.5,1825.1c-0.7,1.8-1.5,3.1-2.4,4c-0.9,0.9-2,1.3-3.4,1.3c-0.6,0-1.1-0.1-1.6-0.3v-1.8 c0.5,0.2,1,0.3,1.6,0.3c1.6,0,2.9-1.1,3.8-3.3l1.9-4.4l-7.6-19.8h2l6,16.3c0.1,0.4,0.2,0.6,0.3,0.8c0.1,0.2,0.1,0.5,0.2,0.7h0.1 l0.5-1.3l6.4-16.4h2L482.5,1825.1z"></path> <path class="st1" d="M507.1,1821v-28h1.9v26.2h11.2v1.8H507.1z"></path> <path class="st1" d="M533,1821.5c-2.9,0-5.2-1-6.9-2.9s-2.5-4.4-2.5-7.5c0-3.3,0.9-5.9,2.7-7.8s4.1-2.8,7-2.8 c2.9,0,5.1,0.9,6.8,2.8c1.7,1.9,2.5,4.4,2.5,7.7c0,3.1-0.8,5.6-2.5,7.6C538.3,1820.5,536,1821.5,533,1821.5z M533.2,1802.2 c-2.4,0-4.2,0.8-5.6,2.4c-1.4,1.6-2.1,3.8-2.1,6.6c0,2.6,0.7,4.7,2.1,6.3s3.2,2.4,5.6,2.4c2.4,0,4.3-0.8,5.6-2.3 c1.3-1.6,2-3.7,2-6.5c0-2.9-0.6-5-1.9-6.6C537.4,1802.9,535.5,1802.2,533.2,1802.2z"></path> <path class="st1" d="M546.4,1820.1v-2.2c0.7,0.6,1.5,1,2.5,1.4c1,0.3,1.8,0.5,2.5,0.5c3.1,0,4.7-1.3,4.7-3.8c0-0.9-0.3-1.6-1-2.3 c-0.7-0.6-1.8-1.3-3.4-1.9c-1.9-0.8-3.3-1.7-4-2.6c-0.8-0.9-1.2-2-1.2-3.3c0-1.6,0.6-2.9,1.9-3.9c1.2-1,2.8-1.5,4.6-1.5 c1.7,0,3.2,0.4,4.4,1.1v2c-1.5-1-3-1.4-4.6-1.4c-1.3,0-2.4,0.3-3.2,1c-0.8,0.7-1.2,1.6-1.2,2.7c0,1,0.3,1.7,0.8,2.3s1.6,1.3,3.4,2 c2.1,0.9,3.5,1.8,4.3,2.6s1.2,1.9,1.2,3.2c0,1.6-0.6,2.9-1.8,3.9s-2.8,1.6-4.9,1.6C549.3,1821.5,547.7,1821,546.4,1820.1z"></path> <path class="st1" d="M561.9,1820.1v-2.2c0.7,0.6,1.5,1,2.5,1.4c1,0.3,1.8,0.5,2.5,0.5c3.1,0,4.7-1.3,4.7-3.8c0-0.9-0.3-1.6-1-2.3 c-0.7-0.6-1.8-1.3-3.4-1.9c-1.9-0.8-3.3-1.7-4-2.6c-0.8-0.9-1.2-2-1.2-3.3c0-1.6,0.6-2.9,1.9-3.9c1.2-1,2.8-1.5,4.6-1.5 c1.7,0,3.2,0.4,4.4,1.1v2c-1.5-1-3-1.4-4.6-1.4c-1.3,0-2.4,0.3-3.2,1c-0.8,0.7-1.2,1.6-1.2,2.7c0,1,0.3,1.7,0.8,2.3s1.6,1.3,3.4,2 c2.1,0.9,3.5,1.8,4.3,2.6s1.2,1.9,1.2,3.2c0,1.6-0.6,2.9-1.8,3.9s-2.8,1.6-4.9,1.6C564.8,1821.5,563.2,1821,561.9,1820.1z"></path> </g> <g class="st0"> <path class="st1" d="M381.6,1874v-28h7.4c2.2,0,4,0.6,5.3,1.8c1.3,1.2,2,2.8,2,4.7c0,1.6-0.4,3-1.3,4.2c-0.9,1.2-2.1,2-3.6,2.5 v0.1c1.9,0.2,3.5,0.9,4.6,2.1c1.1,1.2,1.7,2.7,1.7,4.6c0,2.4-0.8,4.3-2.3,5.8s-3.6,2.2-6.1,2.2H381.6z M383.5,1847.8v10.8h3.9 c2,0,3.7-0.5,4.9-1.6c1.2-1,1.8-2.5,1.8-4.2c0-3.4-2-5-6-5H383.5z M383.5,1860.4v11.9h5.2c2.2,0,3.9-0.5,5-1.6 c1.2-1.1,1.7-2.6,1.7-4.5c0-3.9-2.6-5.8-7.9-5.8H383.5z"></path> <path class="st1" d="M412.4,1855.9c-0.6-0.4-1.3-0.6-2.1-0.6c-1.6,0-2.9,0.8-4,2.4c-1.1,1.6-1.6,3.9-1.6,6.9v9.4H403v-20h1.8v4.4 h0.1c0.5-1.5,1.2-2.7,2.2-3.6c1-0.8,2.1-1.3,3.4-1.3c0.7,0,1.4,0.1,2,0.4V1855.9z"></path> <path class="st1" d="M415.8,1864.1c0,2.7,0.6,4.9,1.9,6.4s3,2.3,5.2,2.3c2.2,0,4.4-0.8,6.6-2.5v1.9c-2.1,1.5-4.4,2.2-6.9,2.2 c-2.6,0-4.7-0.9-6.2-2.8c-1.6-1.8-2.4-4.5-2.4-7.8c0-2.9,0.8-5.4,2.5-7.4s3.8-3,6.5-3c2.5,0,4.4,0.9,5.7,2.6s2,4.1,2,7.1v0.8 H415.8z M428.7,1862.4c-0.1-2.3-0.6-4.1-1.7-5.4c-1-1.3-2.4-1.9-4.3-1.9c-1.9,0-3.4,0.6-4.7,1.9s-2,3.1-2.3,5.4H428.7z"></path> <path class="st1" d="M447.5,1874v-4h-0.1c-0.6,1.4-1.6,2.5-2.8,3.3c-1.2,0.8-2.6,1.2-4.1,1.2c-1.9,0-3.4-0.5-4.5-1.6 c-1.1-1.1-1.7-2.4-1.7-4c0-3.5,2.3-5.6,6.9-6.3l6.2-0.9c0-4.3-1.6-6.4-4.8-6.4c-2.2,0-4.3,0.9-6.4,2.7v-2.2c0.7-0.6,1.7-1.1,3-1.5 c1.3-0.4,2.5-0.6,3.6-0.6c2.1,0,3.6,0.6,4.8,1.9c1.1,1.3,1.7,3.1,1.7,5.6v13H447.5z M442,1864c-2.1,0.3-3.6,0.8-4.4,1.5 c-0.8,0.7-1.3,1.8-1.3,3.3c0,1.2,0.4,2.2,1.2,2.9c0.8,0.8,1.9,1.2,3.3,1.2c1.9,0,3.5-0.7,4.8-2.1c1.3-1.4,1.9-3.3,1.9-5.5v-2 L442,1864z"></path> <path class="st1" d="M466.8,1874l-9.6-9.9h-0.1v9.9h-1.8v-29.6h1.8v19.1h0.1l9.1-9.5h2.3l-9.5,9.7l10.3,10.3H466.8z"></path> <path class="st1" d="M487.3,1874v-3.6h-0.1c-0.7,1.3-1.6,2.3-2.9,3c-1.3,0.7-2.7,1.1-4.3,1.1c-2.5,0-4.5-0.9-6-2.7 c-1.6-1.8-2.3-4.3-2.3-7.4c0-3.2,0.8-5.8,2.5-7.8s3.9-3,6.6-3c3,0,5.1,1.2,6.4,3.7h0.1v-12.8h1.8v29.6H487.3z M487.3,1861.8 c0-1.9-0.6-3.4-1.8-4.7c-1.2-1.3-2.8-1.9-4.8-1.9c-2.1,0-3.8,0.8-5.2,2.4s-2.1,3.8-2.1,6.6c0,2.8,0.6,4.9,1.8,6.4s2.8,2.3,4.8,2.3 c2.3,0,4-0.7,5.3-2.1s1.9-3.1,1.9-5.2V1861.8z"></path> <path class="st1" d="M503.5,1874.5c-2.9,0-5.2-1-6.9-2.9s-2.5-4.4-2.5-7.5c0-3.3,0.9-5.9,2.7-7.8s4.1-2.8,7-2.8 c2.9,0,5.1,0.9,6.8,2.8c1.7,1.9,2.5,4.4,2.5,7.7c0,3.1-0.8,5.6-2.5,7.6C508.7,1873.5,506.4,1874.5,503.5,1874.5z M503.6,1855.2 c-2.4,0-4.2,0.8-5.6,2.4c-1.4,1.6-2.1,3.8-2.1,6.6c0,2.6,0.7,4.7,2.1,6.3s3.2,2.4,5.6,2.4c2.4,0,4.3-0.8,5.6-2.3 c1.3-1.6,2-3.7,2-6.5c0-2.9-0.6-5-1.9-6.6C507.8,1855.9,506,1855.2,503.6,1855.2z"></path> <path class="st1" d="M534.9,1874h-1.7l-4.4-15.1c-0.1-0.4-0.2-1-0.3-1.7h-0.1c0,0.3-0.2,0.8-0.4,1.6l-4.9,15.1h-1.7l-6-20h2 l4.6,16c0.1,0.4,0.2,1,0.3,1.7h0.2c0-0.4,0.2-0.9,0.4-1.7l5.1-16h1.2l4.5,16c0.1,0.4,0.2,0.9,0.3,1.7h0.2c0-0.4,0.1-0.9,0.3-1.7 l4.7-16h1.9L534.9,1874z"></path> <path class="st1" d="M558.6,1874v-11.6c0-4.8-1.7-7.2-5.2-7.2c-1.9,0-3.5,0.7-4.7,2.1c-1.2,1.4-1.9,3.2-1.9,5.2v11.5H545v-20h1.8 v3.6h0.1c1.5-2.7,3.7-4.1,6.8-4.1c2.2,0,3.8,0.7,5,2.2c1.1,1.4,1.7,3.5,1.7,6.2v12.2H558.6z"></path> </g> <g class="st0"> <path class="st1" d="M404.6,1927H403l-6.2-21.1c-0.3-1.1-0.5-2-0.5-2.6h-0.1c0,0.6-0.2,1.4-0.6,2.6l-6.6,21.1h-1.6l-8.3-28h2.2 l6.4,22.4c0.3,1,0.5,1.8,0.6,2.5h0.1c0.1-0.5,0.3-1.3,0.7-2.5l6.9-22.4h1l6.3,22.4c0.3,1,0.5,1.9,0.6,2.5h0.1 c0.1-0.4,0.2-0.8,0.3-1.2l6.6-23.7h2.1L404.6,1927z"></path> <path class="st1" d="M426.7,1927v-4h-0.1c-0.6,1.4-1.6,2.5-2.8,3.3c-1.2,0.8-2.6,1.2-4.1,1.2c-1.9,0-3.4-0.5-4.5-1.6 c-1.1-1.1-1.7-2.4-1.7-4c0-3.5,2.3-5.6,6.9-6.3l6.2-0.9c0-4.3-1.6-6.4-4.8-6.4c-2.2,0-4.3,0.9-6.4,2.7v-2.2c0.7-0.6,1.7-1.1,3-1.5 s2.5-0.6,3.6-0.6c2.1,0,3.6,0.6,4.8,1.9c1.1,1.3,1.7,3.1,1.7,5.6v13H426.7z M421.2,1917c-2.1,0.3-3.6,0.8-4.4,1.5 c-0.8,0.7-1.3,1.8-1.3,3.3c0,1.2,0.4,2.2,1.2,2.9c0.8,0.8,1.9,1.2,3.3,1.2c1.9,0,3.5-0.7,4.8-2.1c1.3-1.4,1.9-3.3,1.9-5.5v-2 L421.2,1917z"></path> <path class="st1" d="M433.5,1926.1v-2.2c0.7,0.6,1.5,1,2.5,1.4c1,0.3,1.8,0.5,2.5,0.5c3.1,0,4.7-1.3,4.7-3.8c0-0.9-0.3-1.6-1-2.3 c-0.7-0.6-1.8-1.3-3.4-1.9c-1.9-0.8-3.3-1.7-4-2.6c-0.8-0.9-1.2-2-1.2-3.3c0-1.6,0.6-2.9,1.9-3.9c1.2-1,2.8-1.5,4.6-1.5 c1.7,0,3.2,0.4,4.4,1.1v2c-1.5-1-3-1.4-4.6-1.4c-1.3,0-2.4,0.3-3.2,1c-0.8,0.7-1.2,1.6-1.2,2.7c0,1,0.3,1.7,0.8,2.3s1.6,1.3,3.4,2 c2.1,0.9,3.5,1.8,4.3,2.6s1.2,1.9,1.2,3.2c0,1.6-0.6,2.9-1.8,3.9s-2.8,1.6-4.9,1.6C436.4,1927.5,434.8,1927,433.5,1926.1z"></path> <path class="st1" d="M458,1926.7c-0.9,0.4-1.8,0.7-2.6,0.7c-3,0-4.4-1.8-4.4-5.3v-13.4h-3.6v-1.6h3.6v-5.2 c0.3-0.1,0.6-0.2,0.9-0.3c0.3-0.1,0.6-0.2,0.9-0.3v5.8h5.3v1.6h-5.3v13.2c0,1.4,0.2,2.4,0.7,3c0.4,0.6,1.2,0.9,2.2,0.9 c0.7,0,1.5-0.2,2.4-0.7V1926.7z"></path> <path class="st1" d="M462.4,1917.1c0,2.7,0.6,4.9,1.9,6.4s3,2.3,5.2,2.3c2.2,0,4.4-0.8,6.6-2.5v1.9c-2.1,1.5-4.4,2.2-6.9,2.2 c-2.6,0-4.7-0.9-6.2-2.8c-1.6-1.8-2.4-4.5-2.4-7.8c0-2.9,0.8-5.4,2.5-7.4s3.8-3,6.5-3c2.5,0,4.4,0.9,5.7,2.6s2,4.1,2,7.1v0.8 H462.4z M475.3,1915.4c-0.1-2.3-0.6-4.1-1.7-5.4c-1-1.3-2.4-1.9-4.3-1.9c-1.9,0-3.4,0.6-4.7,1.9s-2,3.1-2.3,5.4H475.3z"></path> </g> <g class="st0"> <path class="st1" d="M396,1980l-11.9-13.4c-0.2-0.2-0.4-0.5-0.5-0.6h-0.1v14h-1.9v-28h1.9v13.2h0.1c0.2-0.3,0.3-0.5,0.5-0.7 l11.3-12.5h2.5l-12.3,13.6l13,14.4H396z"></path> <path class="st1" d="M415.9,1980v-11.6c0-4.8-1.7-7.2-5.2-7.2c-1.9,0-3.5,0.7-4.7,2.1c-1.2,1.4-1.9,3.2-1.9,5.2v11.5h-1.8v-20h1.8 v3.6h0.1c1.5-2.7,3.7-4.1,6.8-4.1c2.2,0,3.8,0.7,5,2.2c1.1,1.4,1.7,3.5,1.7,6.2v12.2H415.9z"></path> <path class="st1" d="M431.7,1980.5c-2.9,0-5.2-1-6.9-2.9s-2.5-4.4-2.5-7.5c0-3.3,0.9-5.9,2.7-7.8s4.1-2.8,7-2.8 c2.9,0,5.1,0.9,6.8,2.8c1.7,1.9,2.5,4.4,2.5,7.7c0,3.1-0.8,5.6-2.5,7.6C436.9,1979.5,434.6,1980.5,431.7,1980.5z M431.8,1961.2 c-2.4,0-4.2,0.8-5.6,2.4c-1.4,1.6-2.1,3.8-2.1,6.6c0,2.6,0.7,4.7,2.1,6.3s3.2,2.4,5.6,2.4c2.4,0,4.3-0.8,5.6-2.3s2-3.7,2-6.5 c0-2.9-0.6-5-1.9-6.6C436,1961.9,434.2,1961.2,431.8,1961.2z"></path> <path class="st1" d="M463.1,1980h-1.7l-4.4-15.1c-0.1-0.4-0.2-1-0.3-1.7h-0.1c0,0.3-0.2,0.8-0.4,1.6l-4.9,15.1h-1.7l-6-20h2 l4.6,16c0.1,0.4,0.2,1,0.3,1.7h0.2c0-0.4,0.2-0.9,0.4-1.7l5.1-16h1.2l4.5,16c0.1,0.4,0.2,0.9,0.3,1.7h0.2c0-0.4,0.1-0.9,0.3-1.7 l4.7-16h1.9L463.1,1980z"></path> <path class="st1" d="M473.2,1980v-29.6h1.8v29.6H473.2z"></path> <path class="st1" d="M481.8,1970.1c0,2.7,0.6,4.9,1.9,6.4s3,2.3,5.2,2.3c2.2,0,4.4-0.8,6.6-2.5v1.9c-2.1,1.5-4.4,2.2-6.9,2.2 c-2.6,0-4.7-0.9-6.2-2.8c-1.6-1.8-2.4-4.5-2.4-7.8c0-2.9,0.8-5.4,2.5-7.4s3.8-3,6.5-3c2.5,0,4.4,0.9,5.7,2.6s2,4.1,2,7.1v0.8 H481.8z M494.8,1968.4c-0.1-2.3-0.6-4.1-1.7-5.4c-1-1.3-2.4-1.9-4.3-1.9c-1.9,0-3.4,0.6-4.7,1.9s-2,3.1-2.3,5.4H494.8z"></path> <path class="st1" d="M515.8,1980v-3.6h-0.1c-0.7,1.3-1.6,2.3-2.9,3c-1.3,0.7-2.7,1.1-4.3,1.1c-2.5,0-4.5-0.9-6-2.7 c-1.6-1.8-2.3-4.3-2.3-7.4c0-3.2,0.8-5.8,2.5-7.8s3.9-3,6.6-3c3,0,5.1,1.2,6.4,3.7h0.1v-12.8h1.8v29.6H515.8z M515.8,1967.8 c0-1.9-0.6-3.4-1.8-4.7c-1.2-1.3-2.8-1.9-4.8-1.9c-2.1,0-3.8,0.8-5.2,2.4s-2.1,3.8-2.1,6.6c0,2.8,0.6,4.9,1.8,6.4s2.8,2.3,4.8,2.3 c2.3,0,4-0.7,5.3-2.1s1.9-3.1,1.9-5.2V1967.8z"></path> <path class="st1" d="M540,1978.5c0,3.8-0.8,6.5-2.5,8.3s-4.2,2.6-7.7,2.6c-1.9,0-3.9-0.5-6-1.5v-1.9c2.1,1.2,4.1,1.8,6,1.8 c5.5,0,8.3-2.9,8.3-8.8v-2.6h-0.1c-1.6,2.7-4,4.1-7.2,4.1c-2.5,0-4.5-0.9-6-2.7c-1.6-1.8-2.3-4.3-2.3-7.5s0.8-5.8,2.5-7.8 s3.9-3,6.6-3c2.9,0,5.1,1.2,6.4,3.7h0.1v-3.2h1.8V1978.5z M538.2,1967.7c0-1.8-0.6-3.3-1.8-4.6s-2.7-1.9-4.7-1.9 c-2.2,0-4,0.8-5.3,2.5c-1.3,1.7-2,3.8-2,6.6c0,2.7,0.6,4.9,1.8,6.4s2.9,2.3,4.9,2.3c2.1,0,3.9-0.7,5.1-2.1 c1.3-1.4,1.9-3.1,1.9-5.1V1967.7z"></path> <path class="st1" d="M546.8,1970.1c0,2.7,0.6,4.9,1.9,6.4s3,2.3,5.2,2.3c2.2,0,4.4-0.8,6.6-2.5v1.9c-2.1,1.5-4.4,2.2-6.9,2.2 c-2.6,0-4.7-0.9-6.2-2.8c-1.6-1.8-2.4-4.5-2.4-7.8c0-2.9,0.8-5.4,2.5-7.4s3.8-3,6.5-3c2.5,0,4.4,0.9,5.7,2.6s2,4.1,2,7.1v0.8 H546.8z M559.8,1968.4c-0.1-2.3-0.6-4.1-1.7-5.4c-1-1.3-2.4-1.9-4.3-1.9c-1.9,0-3.4,0.6-4.7,1.9s-2,3.1-2.3,5.4H559.8z"></path> <path class="st1" d="M577.9,1980v-28h7c4.6,0,8.2,1.2,10.6,3.5s3.6,5.7,3.6,10.1c0,4.3-1.3,7.7-3.9,10.4s-6.2,4-10.8,4H577.9z M579.9,1953.8v24.5h4.4c4.2,0,7.3-1.1,9.6-3.2s3.3-5.3,3.3-9.3c0-7.9-4.2-11.9-12.5-11.9H579.9z"></path> <path class="st1" d="M613.9,1961.9c-0.6-0.4-1.3-0.6-2.1-0.6c-1.6,0-2.9,0.8-4,2.4c-1.1,1.6-1.6,3.9-1.6,6.9v9.4h-1.8v-20h1.8v4.4 h0.1c0.5-1.5,1.2-2.7,2.2-3.6c1-0.8,2.1-1.3,3.4-1.3c0.7,0,1.4,0.1,2,0.4V1961.9z"></path> <path class="st1" d="M629.7,1980v-4h-0.1c-0.6,1.4-1.6,2.5-2.8,3.3c-1.2,0.8-2.6,1.2-4.1,1.2c-1.9,0-3.4-0.5-4.5-1.6 c-1.1-1.1-1.7-2.4-1.7-4c0-3.5,2.3-5.6,6.9-6.3l6.2-0.9c0-4.3-1.6-6.4-4.8-6.4c-2.2,0-4.3,0.9-6.4,2.7v-2.2c0.7-0.6,1.7-1.1,3-1.5 s2.5-0.6,3.6-0.6c2.1,0,3.6,0.6,4.8,1.9c1.1,1.3,1.7,3.1,1.7,5.6v13H629.7z M624.2,1970c-2.1,0.3-3.6,0.8-4.4,1.5 c-0.8,0.7-1.3,1.8-1.3,3.3c0,1.2,0.4,2.2,1.2,2.9c0.8,0.8,1.9,1.2,3.3,1.2c1.9,0,3.5-0.7,4.8-2.1c1.3-1.4,1.9-3.3,1.9-5.5v-2 L624.2,1970z"></path> <path class="st1" d="M638.4,1955c-0.4,0-0.7-0.1-1-0.4c-0.3-0.3-0.4-0.7-0.4-1.1c0-0.4,0.2-0.8,0.5-1c0.3-0.3,0.6-0.4,1-0.4 c0.4,0,0.8,0.1,1.1,0.4c0.3,0.3,0.5,0.6,0.5,1.1c0,0.4-0.1,0.8-0.4,1.1C639.1,1954.8,638.8,1955,638.4,1955z M637.5,1980v-20h1.8 v20H637.5z"></path> <path class="st1" d="M659.3,1980v-11.6c0-4.8-1.7-7.2-5.2-7.2c-1.9,0-3.5,0.7-4.7,2.1c-1.2,1.4-1.9,3.2-1.9,5.2v11.5h-1.8v-20h1.8 v3.6h0.1c1.5-2.7,3.7-4.1,6.8-4.1c2.2,0,3.8,0.7,5,2.2c1.1,1.4,1.7,3.5,1.7,6.2v12.2H659.3z"></path> </g> <path id="Pfad_49735" class="st1" d="M267.7,1981c-21.5,0-38.2-9.9-50.4-29.6c-12.1-19.7-18.2-48.4-18.2-86 c0-41.5,6.4-72.8,19.1-93.8s30.9-31.6,54.5-31.6c44.9,0,67.3,39.8,67.3,119.4c0,39.7-6.3,69.8-19,90.5 C308.3,1970.7,290.5,1981,267.7,1981z M271.4,1753.7c-17.9,0-31.8,9.2-41.8,27.5s-15,45.8-15,82.4c0,33.4,4.8,59,14.3,76.9 s23.1,26.9,40.6,26.9c17.2,0,30.6-9.1,40.2-27.4s14.4-44.3,14.4-78.2C324.2,1789.7,306.6,1753.7,271.4,1753.7z"></path> <g class="st0"> <path class="st1" d="M254.1,1872h-17.5v-2.8l11.1-14.9h-10.3v-4h16.7v2.7l-10.9,15h10.9V1872z"></path> <path class="st1" d="M270.8,1865.6h-10.1c0.2,2.2,1.6,3.4,4.3,3.4c1.7,0,3.2-0.4,4.5-1.2v3.5c-1.4,0.8-3.3,1.2-5.6,1.2 c-2.5,0-4.4-0.7-5.8-2.1c-1.4-1.4-2.1-3.3-2.1-5.8c0-2.6,0.7-4.6,2.2-6.1c1.5-1.5,3.3-2.3,5.5-2.3c2.3,0,4,0.7,5.2,2 c1.2,1.3,1.9,3.2,1.9,5.5V1865.6z M266.3,1862.7c0-2.2-0.9-3.3-2.7-3.3c-0.8,0-1.4,0.3-2,1c-0.6,0.6-0.9,1.4-1,2.4H266.3z"></path> <path class="st1" d="M283.7,1860.8c-0.6-0.3-1.2-0.5-2-0.5c-1,0-1.9,0.4-2.4,1.1c-0.6,0.8-0.9,1.8-0.9,3.1v7.4h-4.8v-15.5h4.8v2.9 h0.1c0.8-2.1,2.1-3.1,4.1-3.1c0.5,0,0.9,0.1,1.2,0.2V1860.8z"></path> <path class="st1" d="M293.2,1872.4c-2.6,0-4.6-0.7-6.1-2.2c-1.5-1.4-2.2-3.4-2.2-5.9c0-2.6,0.8-4.6,2.3-6c1.5-1.4,3.6-2.2,6.2-2.2 c2.6,0,4.6,0.7,6.1,2.2c1.5,1.4,2.2,3.4,2.2,5.7c0,2.6-0.8,4.6-2.3,6.1C297.9,1871.6,295.8,1872.4,293.2,1872.4z M293.3,1859.8 c-1.1,0-2,0.4-2.6,1.2c-0.6,0.8-0.9,1.9-0.9,3.3c0,3,1.2,4.5,3.6,4.5c2.3,0,3.4-1.5,3.4-4.6 C296.8,1861.2,295.6,1859.8,293.3,1859.8z"></path> </g> </g> </svg> 